<?xml version="1.0" encoding="UTF-8"?>
<svg width="113px" height="108px" viewBox="0 0 113 108" version="1.1" xmlns="http://www.w3.org/2000/svg" xmlns:xlink="http://www.w3.org/1999/xlink">
    <!-- Generator: Sketch 52.5 (67469) - http://www.bohemiancoding.com/sketch -->
    <title>Group 6</title>
    <desc>Created with Sketch.</desc>
    <defs>
        <linearGradient x1="50%" y1="0%" x2="50%" y2="100%" id="linearGradient-1">
            <stop stop-color="#9A9A9A" offset="0%"></stop>
            <stop stop-color="#3C3C3C" offset="100%"></stop>
        </linearGradient>
    </defs>
    <g id="Page-1" stroke="none" stroke-width="1" fill="none" fill-rule="evenodd">
        <g id="Dashboard" transform="translate(-1041.000000, -346.000000)">
            <g id="items" transform="translate(309.000000, 346.000000)">
                <g id="noun_Music_19038-Copy" transform="translate(732.000000, 0.000000)">
                    <g id="Group-6">
                        <g id="Group-5" fill="url(#linearGradient-1)">
                            <rect id="Rectangle-Copy-3" x="0" y="0" width="113" height="108" rx="19"></rect>
                        </g>
                        <g id="noun_bin_2034046" transform="translate(35.000000, 27.000000)" fill="#FFFFFF">
                            <g id="Group">
                                <path d="M41.4526316,4.296875 L29.8736842,4.296875 L29.8736842,4.18229167 C29.8736842,2.00520833 28.1368421,0.286458333 25.9368421,0.286458333 L18.0631579,0.286458333 C15.8631579,0.286458333 14.1263158,2.00520833 14.1263158,4.18229167 L14.1263158,4.296875 L2.54736842,4.296875 C1.33157895,4.296875 0.347368421,5.27083333 0.347368421,6.47395833 L0.347368421,8.65104167 C0.347368421,9.85416667 1.33157895,10.828125 2.54736842,10.828125 L41.4526316,10.828125 C42.6684211,10.828125 43.6526316,9.85416667 43.6526316,8.65104167 L43.6526316,6.47395833 C43.6526316,5.27083333 42.6684211,4.296875 41.4526316,4.296875 Z" id="Path"></path>
                                <path d="M38.5578947,13.8072917 L5.44210526,13.8072917 C4.80526316,13.8072917 4.34210526,14.3229167 4.4,14.953125 L6.02105263,48.125 C6.19473684,51.7916667 9.26315789,54.7135417 12.9684211,54.7135417 L30.9736842,54.7135417 C34.6789474,54.7135417 37.7473684,51.8489583 37.9210526,48.125 L39.5421053,14.953125 C39.6578947,14.3802083 39.1368421,13.8072917 38.5578947,13.8072917 Z M18.4105263,45.8333333 C18.4105263,46.8645833 17.6,47.6666667 16.5578947,47.6666667 C15.5157895,47.6666667 14.7052632,46.8645833 14.7052632,45.8333333 L14.7052632,22.7447917 C14.7052632,21.7135417 15.5157895,20.9114583 16.5578947,20.9114583 C17.6,20.9114583 18.4105263,21.7135417 18.4105263,22.7447917 L18.4105263,45.8333333 Z M29.2947368,45.8333333 C29.2947368,46.8645833 28.4842105,47.6666667 27.4421053,47.6666667 C26.4,47.6666667 25.5894737,46.8645833 25.5894737,45.8333333 L25.5894737,22.7447917 C25.5894737,21.7135417 26.4,20.9114583 27.4421053,20.9114583 C28.4842105,20.9114583 29.2947368,21.7135417 29.2947368,22.7447917 L29.2947368,45.8333333 Z" id="Shape" fill-rule="nonzero"></path>
                            </g>
                        </g>
                    </g>
                </g>
            </g>
        </g>
    </g>
</svg>