<?xml version="1.0" encoding="UTF-8"?>
<svg width="96px" height="82px" viewBox="0 0 96 82" version="1.1" xmlns="http://www.w3.org/2000/svg" xmlns:xlink="http://www.w3.org/1999/xlink">
    <!-- Generator: Sketch 52.5 (67469) - http://www.bohemiancoding.com/sketch -->
    <title>noun_File_2085275</title>
    <desc>Created with Sketch.</desc>
    <g id="Page-1" stroke="none" stroke-width="1" fill="none" fill-rule="evenodd">
        <g id="Musiques" transform="translate(-769.000000, -531.000000)" fill="#BC9C6C">
            <g id="noun_File_2085275" transform="translate(768.000000, 531.000000)">
                <path d="M95.932,19.744 L93.4,19.744 C93.398,19.744 93.396,19.744 93.396,19.744 L4.604,19.744 C4.604,19.744 4.602,19.744 4.6,19.744 L2.068,19.744 C1.47,19.744 0.981,20.224 0.967,20.819 L5.402,80.779 C5.404,80.799 5.404,80.819 5.404,80.839 C5.404,81.445 5.898,81.94 6.505,81.94 L91.494,81.94 C92.1,81.94 92.595,81.446 92.595,80.839 C92.595,80.819 92.595,80.799 92.597,80.779 L97.032,20.819 C97.021,20.224 96.53,19.744 95.932,19.744 Z" id="Path"></path>
                <path d="M92.595,10.509 C92.595,10.217 92.479,9.938 92.271,9.73 C92.063,9.522 91.787,9.408 91.494,9.408 L50.307,9.408 C49.917,9.408 49.584,9.13 49.518,8.746 L48.211,1.302 C48.203,1.256 48.199,1.21 48.199,1.162 C48.199,0.556 47.705,0.061 47.096,0.061 L6.505,0.061 C5.899,0.061 5.404,0.555 5.404,1.162 L5.404,18.143 L92.595,18.143 L92.595,10.509 Z" id="Path"></path>
            </g>
        </g>
    </g>
</svg>