<?xml version="1.0" encoding="UTF-8"?>
<svg width="113px" height="108px" viewBox="0 0 113 108" version="1.1" xmlns="http://www.w3.org/2000/svg" xmlns:xlink="http://www.w3.org/1999/xlink">
    <!-- Generator: Sketch 52.5 (67469) - http://www.bohemiancoding.com/sketch -->
    <title>Group 2</title>
    <desc>Created with Sketch.</desc>
    <defs>
        <linearGradient x1="50%" y1="0%" x2="50%" y2="100%" id="linearGradient-1">
            <stop stop-color="#124B71" offset="0%"></stop>
            <stop stop-color="#094B54" offset="100%"></stop>
        </linearGradient>
    </defs>
    <g id="Page-1" stroke="none" stroke-width="1" fill="none" fill-rule="evenodd">
        <g id="Dashboard" transform="translate(-309.000000, -346.000000)">
            <g id="items" transform="translate(309.000000, 346.000000)">
                <g id="noun_message_965436">
                    <g id="Group-2">
                        <rect id="Rectangle" fill="url(#linearGradient-1)" x="0" y="0" width="113" height="108" rx="19"></rect>
                        <path d="M56.5,75.4159292 C59.44,75.4159292 62.31,75.1327434 65.11,74.4955752 L79.04,82 L77.85,68.9026549 C78.34,68.5486726 78.83,68.1946903 79.32,67.7699115 C84.92,63.1681416 88,57.079646 88,50.7079646 C88,37.0442478 73.86,26 56.5,26 C39.14,26 25,37.0442478 25,50.7079646 C25,64.300885 39.14,75.4159292 56.5,75.4159292 Z M66.44,51.2743363 C66.44,49.1504425 68.12,47.4513274 70.22,47.4513274 C72.32,47.4513274 74,49.1504425 74,51.2743363 C74,53.3982301 72.32,55.0973451 70.22,55.0973451 C68.12,55.0265487 66.44,53.3274336 66.44,51.2743363 Z M60.28,51.2743363 C60.28,53.3982301 58.6,55.0973451 56.5,55.0973451 C54.4,55.0973451 52.72,53.3982301 52.72,51.2743363 C52.72,49.1504425 54.4,47.4513274 56.5,47.4513274 C58.6,47.4513274 60.28,49.1504425 60.28,51.2743363 Z M42.78,47.4513274 C44.88,47.4513274 46.56,49.1504425 46.56,51.2743363 C46.56,53.3982301 44.88,55.0973451 42.78,55.0973451 C40.68,55.0973451 39,53.3982301 39,51.2743363 C39.07,49.1504425 40.75,47.4513274 42.78,47.4513274 Z" id="Shape" fill="#FFFFFF" fill-rule="nonzero"></path>
                    </g>
                </g>
            </g>
        </g>
    </g>
</svg>