<?xml version="1.0" encoding="UTF-8"?>
<svg width="113px" height="108px" viewBox="0 0 113 108" version="1.1" xmlns="http://www.w3.org/2000/svg" xmlns:xlink="http://www.w3.org/1999/xlink">
    <!-- Generator: Sketch 52.5 (67469) - http://www.bohemiancoding.com/sketch -->
    <title>Group 5</title>
    <desc>Created with Sketch.</desc>
    <defs>
        <linearGradient x1="50%" y1="0%" x2="50%" y2="100%" id="linearGradient-1">
            <stop stop-color="#C66119" offset="0%"></stop>
            <stop stop-color="#804012" offset="100%"></stop>
        </linearGradient>
    </defs>
    <g id="Page-1" stroke="none" stroke-width="1" fill="none" fill-rule="evenodd">
        <g id="Dashboard" transform="translate(-858.000000, -346.000000)">
            <g id="items" transform="translate(309.000000, 346.000000)">
                <g id="noun_Music_19038" transform="translate(549.000000, 0.000000)">
                    <g id="Group-5">
                        <rect id="Rectangle-Copy-3" fill="url(#linearGradient-1)" x="0" y="0" width="113" height="108" rx="19"></rect>
                        <path d="M41.1,26 L41.1,61.10248 C39.42249,60.14824 37.47708,59.6 35.4,59.6 C29.10378,59.6 24,64.61424 24,70.8 C24,76.98576 29.10378,82 35.4,82 C41.69565,82 46.8,76.98576 46.8,70.8 L46.8,37.2 L75.3,37.2 L75.3,55.50248 C73.62306,54.54824 71.67765,54 69.6,54 C63.30378,54 58.2,59.01424 58.2,65.2 C58.2,71.38576 63.30378,76.4 69.6,76.4 C75.89565,76.4 81,71.38576 81,65.2 L81,26 L41.1,26 Z" id="Path" fill="#FFFFFF"></path>
                    </g>
                </g>
            </g>
        </g>
    </g>
</svg>