<?xml version="1.0" encoding="UTF-8"?>
<svg width="113px" height="108px" viewBox="0 0 113 108" version="1.1" xmlns="http://www.w3.org/2000/svg" xmlns:xlink="http://www.w3.org/1999/xlink">
    <!-- Generator: Sketch 52.5 (67469) - http://www.bohemiancoding.com/sketch -->
    <title>Group 4</title>
    <desc>Created with Sketch.</desc>
    <defs>
        <linearGradient x1="50%" y1="0%" x2="50%" y2="100%" id="linearGradient-1">
            <stop stop-color="#C6A919" offset="0%"></stop>
            <stop stop-color="#907B11" offset="100%"></stop>
        </linearGradient>
    </defs>
    <g id="Page-1" stroke="none" stroke-width="1" fill="none" fill-rule="evenodd">
        <g id="Dashboard" transform="translate(-675.000000, -346.000000)">
            <g id="items" transform="translate(309.000000, 346.000000)">
                <g id="noun_note_1581235" transform="translate(366.000000, 0.000000)">
                    <g id="Group-4">
                        <rect id="Rectangle-Copy-2" fill="url(#linearGradient-1)" x="0" y="0" width="113" height="108" rx="19"></rect>
                        <path d="M36.25,82 L73.75,82 C77.2017797,82 80,79.2103896 80,75.7692308 L80,55 C80,53.8529471 79.0672599,52.9230769 77.9166667,52.9230769 C76.7660734,52.9230769 75.8333333,53.8529471 75.8333333,55 L75.8333333,75.7692308 C75.8333333,76.9162837 74.9005932,77.8461538 73.75,77.8461538 L36.25,77.8461538 C35.0994068,77.8461538 34.1666667,76.9162837 34.1666667,75.7692308 L34.1666667,34.2307692 C34.1666667,33.0837163 35.0994068,32.1538462 36.25,32.1538462 L61.25,32.1538462 C62.4005932,32.1538462 63.3333333,31.223976 63.3333333,30.0769231 C63.3333333,28.9298701 62.4005932,28 61.25,28 L36.25,28 C32.7982203,28 30,30.7896104 30,34.2307692 L30,75.7692308 C30,79.2103896 32.7982203,82 36.25,82 Z" id="Path" fill="#FFFFFF"></path>
                        <path d="M80.9948587,24.0000334 C78.8703718,23.9938821 76.8319051,24.8387775 75.3347036,26.3460317 L47.7929369,53.8853753 C47.5644664,54.1156208 47.3920457,54.395354 47.2890221,54.7029202 L43.1071566,67.2483656 C42.8948839,67.8856853 43.0017411,68.5861817 43.3943778,69.1312277 C43.7870144,69.6762737 44.4176127,69.9994901 45.0893609,70 C45.3138625,69.9996599 45.5368855,69.9636661 45.7500956,69.8933637 L58.2956923,65.7115486 C58.6038168,65.6086781 58.8837347,65.4354317 59.1132471,65.2055489 L86.6550137,37.6641144 C88.9445122,35.3749738 89.629468,31.9320246 88.390445,28.9409211 C87.1514221,25.9498175 84.2324648,23.9997031 80.9948587,24.0000334 Z M83.6984348,34.709662 L56.5163085,61.8914604 L48.3951256,64.6033675 L51.0987017,56.4927371 L78.2912826,29.3109386 C79.3841233,28.2202874 81.0256006,27.8937538 82.4526519,28.4831313 C83.8797032,29.0725087 84.8123676,30.4621723 84.8170838,32.0061185 C84.8196175,33.0204086 84.4169,33.9936934 83.6984348,34.709662 Z" id="Shape" fill="#FFFFFF" fill-rule="nonzero"></path>
                    </g>
                </g>
            </g>
        </g>
    </g>
</svg>