<?xml version="1.0" encoding="UTF-8"?>
<svg width="113px" height="108px" viewBox="0 0 113 108" version="1.1" xmlns="http://www.w3.org/2000/svg" xmlns:xlink="http://www.w3.org/1999/xlink">
    <!-- Generator: Sketch 52.5 (67469) - http://www.bohemiancoding.com/sketch -->
    <title>Group 3</title>
    <desc>Created with Sketch.</desc>
    <defs>
        <linearGradient x1="50%" y1="0%" x2="50%" y2="100%" id="linearGradient-1">
            <stop stop-color="#6EC619" offset="0%"></stop>
            <stop stop-color="#3F730C" offset="100%"></stop>
        </linearGradient>
    </defs>
    <g id="Page-1" stroke="none" stroke-width="1" fill="none" fill-rule="evenodd">
        <g id="Dashboard" transform="translate(-492.000000, -346.000000)">
            <g id="items" transform="translate(309.000000, 346.000000)">
                <g id="noun_Picture_1473012" transform="translate(183.000000, 0.000000)">
                    <g id="Group-3">
                        <rect id="Rectangle-Copy" fill="url(#linearGradient-1)" x="0" y="0" width="113" height="108" rx="19"></rect>
                        <g id="Group" transform="translate(33.000000, 28.603030)" fill="#FFFFFF" fill-rule="nonzero">
                            <path d="M11.3696927,2.97568556 L9.60392099,9.6035297 L4.13444625,9.6035297 C1.86777176,9.6035297 0,11.4761409 0,13.7486264 L0,46.9094694 C0,49.181948 1.86777176,51.0545455 4.13444625,51.0545455 L37.209946,51.0545455 C39.4271367,51.0545455 41.2653422,49.265705 41.3443923,47.0605632 C41.8349572,46.5683009 42.2092558,45.9589582 42.399541,45.2470925 L50.8622335,13.5974981 C51.4441849,11.4199878 50.1270753,9.1507243 47.9551644,8.56724689 L16.3654877,0.0827426065 C14.1897862,-0.401675211 11.8541928,1.32914931 11.3696927,2.97568556 Z M15.4947456,1.90504577 L47.1460315,10.4113562 C47.8910026,10.6119824 48.3172137,11.3334904 48.1175827,12.0822377 L41.251908,37.8181818 L41.251908,12.9502331 C41.251908,10.6660934 39.3791497,8.78387875 37.1065766,8.78387875 L12.2777778,8.78387875 L13.8538882,2.83812972 C14.2936429,1.96145909 14.7118384,1.84211388 15.4947456,1.90504577 Z M4.21369916,12.2909091 L37.3418564,12.2909091 C38.1304396,12.2909091 38.7222222,12.8790348 38.7222222,13.6627732 L38.7222222,34.3693392 L30.7205611,26.4168047 C30.0478769,25.7482994 29.1953041,25.4255207 28.3480465,25.4307953 C27.5411016,25.4376455 26.7637701,25.7643972 26.1265666,26.3525504 C23.6016368,28.4024551 20.9675037,30.5984049 18.7935155,32.3973205 L16.9171789,30.5324381 C16.2444947,29.8639328 15.3919219,29.5410856 14.5446643,29.5464287 C13.7281245,29.5532789 12.9423714,29.8876343 12.3016475,30.4896247 C9.02561702,33.3072933 5.64266116,36.299161 2.83333333,38.7636364 L2.83333333,13.6628006 C3.1219421,12.8651222 3.51892584,12.3104731 4.21369916,12.2909091 Z M12.277744,15.1272727 C9.68576266,15.1272727 7.55555556,17.2597289 7.55555556,19.8545016 C7.55555556,22.4493418 9.68576266,24.5818182 12.277744,24.5818182 C14.8697929,24.5818182 17,22.4493418 17,19.8545016 C17,17.2597289 14.8697929,15.1272727 12.277744,15.1272727 Z M12.2777778,17.9636364 C13.3359208,17.9636364 14.1666667,18.795333 14.1666667,19.854514 C14.1666667,20.9137579 13.3359208,21.7454545 12.2777778,21.7454545 C11.2196977,21.7454545 10.3888889,20.9137579 10.3888889,19.854514 C10.3888889,18.795333 11.2196977,17.9636364 12.2777778,17.9636364 Z" id="Shape"></path>
                        </g>
                    </g>
                </g>
            </g>
        </g>
    </g>
</svg>