<?xml version="1.0" encoding="UTF-8"?>
<svg width="52px" height="91px" viewBox="0 0 52 91" version="1.1" xmlns="http://www.w3.org/2000/svg" xmlns:xlink="http://www.w3.org/1999/xlink">
    <!-- Generator: Sketch 52.5 (67469) - http://www.bohemiancoding.com/sketch -->
    <title>Shape</title>
    <desc>Created with Sketch.</desc>
    <defs>
        <linearGradient x1="50%" y1="0%" x2="50%" y2="100%" id="linearGradient-1">
            <stop stop-color="#7AC10E" offset="0%"></stop>
            <stop stop-color="#08A3BD" offset="100%"></stop>
        </linearGradient>
    </defs>
    <g id="Page-1" stroke="none" stroke-width="1" fill="none" fill-rule="evenodd">
        <g id="Dashboard" transform="translate(-586.000000, -175.000000)" fill="url(#linearGradient-1)" fill-rule="nonzero">
            <g id="noun_Pineapple_1292200" transform="translate(586.000000, 174.000000)">
                <path d="M27.854,1.072 C28.354,1.239 28.571,1.572 28.504,2.072 C28.104,8.305 28.653,14.089 30.153,19.422 C33.921,15.189 38.603,12.639 44.204,11.772 C44.637,11.672 44.971,11.838 45.204,12.272 C45.403,12.639 45.37,13.022 45.103,13.422 C40.503,18.755 37.77,24.089 36.903,29.422 C40.636,27.022 45.303,26.655 50.903,28.322 C51.37,28.489 51.603,28.789 51.603,29.222 C51.636,29.656 51.454,30.006 51.053,30.272 C46.153,32.405 42.103,35.372 38.903,39.171 L37.153,38.121 L37.103,38.121 C36.87,37.954 36.603,37.805 36.303,37.671 C36.136,37.604 35.987,37.521 35.853,37.421 C34.853,36.888 33.787,36.454 32.653,36.121 L29.903,35.471 L28.303,35.321 C27.27,35.188 26.487,35.121 25.953,35.121 C25.686,35.121 25.17,35.155 24.402,35.221 L23.753,35.321 L23.603,35.321 C23.204,35.321 22.886,35.354 22.653,35.421 L22.153,35.471 C20.153,35.804 18.27,36.405 16.504,37.271 L16.304,37.371 C15.904,37.538 15.504,37.738 15.104,37.971 L15.054,38.021 L15.004,37.971 L13.254,39.021 C11.62,37.121 9.771,35.438 7.704,33.971 C6.437,33.038 4.987,32.155 3.353,31.321 L1.003,30.171 C0.536,29.971 0.336,29.621 0.402,29.121 C0.402,28.688 0.635,28.388 1.102,28.221 C2.635,27.755 4.036,27.454 5.302,27.321 C8.802,26.888 11.885,27.421 14.552,28.921 C13.618,26.754 12.269,24.771 10.502,22.971 C8.936,21.371 7.019,19.954 4.752,18.721 L4.002,18.271 C3.502,18.038 3.302,17.704 3.401,17.271 C3.468,16.771 3.752,16.487 4.252,16.421 C4.719,16.321 5.118,16.271 5.452,16.271 C9.719,15.704 13.401,16.121 16.502,17.521 C17.802,18.121 18.952,18.854 19.952,19.721 C20.052,13.421 22.285,7.321 26.651,1.421 C26.955,0.989 27.354,0.872 27.854,1.072 Z M6.005,77.172 L6.005,77.072 C5.505,76.039 5.038,74.888 4.605,73.622 L11.555,66.622 L24.555,79.772 L16.005,88.372 C13.871,87.206 11.888,85.556 10.055,83.422 L9.955,83.223 C8.555,81.589 7.338,79.756 6.305,77.723 L6.255,77.573 L6.005,77.172 Z M3.305,67.122 L3.205,66.322 L3.255,61.222 L3.605,58.722 L10.055,65.222 L4.005,71.322 C3.705,70.089 3.472,68.688 3.305,67.122 Z M12.904,65.172 L25.955,52.072 L39.104,65.172 L25.955,78.272 L12.904,65.172 Z M11.805,43.022 C12.472,42.322 13.105,41.739 13.705,41.272 L14.604,40.671 L24.554,50.722 L11.504,63.722 L4.153,56.322 C4.454,54.989 4.853,53.688 5.353,52.422 L6.954,49.223 C7.787,47.689 8.787,46.289 9.954,45.023 C10.521,44.322 11.138,43.655 11.805,43.022 Z M42.055,83.172 L41.955,83.372 L40.805,84.622 C39.405,86.089 37.822,87.339 36.055,88.372 L27.455,79.772 L40.455,66.622 L47.455,73.622 L46.955,75.072 C45.722,78.105 44.088,80.806 42.055,83.172 Z M34.255,89.372 L31.305,90.322 L31.155,90.322 C29.555,90.789 27.822,91.022 25.956,91.022 L24.056,90.972 C23.856,90.905 23.573,90.871 23.206,90.871 L19.605,90.071 C18.972,89.871 18.372,89.637 17.805,89.371 L26.005,81.121 L34.255,89.372 Z M48.455,58.723 L48.555,59.172 L48.855,65.473 C48.789,65.706 48.772,65.856 48.805,65.922 C48.705,67.723 48.455,69.523 48.055,71.322 L41.955,65.222 L48.455,58.723 Z M37.404,40.723 C38.271,41.289 39.071,41.939 39.804,42.672 L40.304,43.122 C40.938,43.688 41.521,44.322 42.054,45.022 C43.754,46.921 45.188,49.171 46.354,51.772 L46.404,51.822 L46.755,52.572 C47.255,53.905 47.638,55.155 47.904,56.322 L40.505,63.722 L27.455,50.722 L37.404,40.723 Z M32.104,38.072 C33.171,38.372 34.337,38.888 35.604,39.622 L26.004,49.223 L16.403,39.622 C18.27,38.556 20.27,37.822 22.403,37.422 L23.603,37.322 L23.853,37.322 L24.003,37.272 L24.603,37.172 C25.836,37.105 27.003,37.139 28.103,37.272 L29.553,37.422 L32.104,38.072 Z" id="Shape"></path>
            </g>
        </g>
    </g>
</svg>