<?xml version="1.0" encoding="UTF-8"?>
<svg width="22px" height="24px" viewBox="0 0 22 24" version="1.1" xmlns="http://www.w3.org/2000/svg" xmlns:xlink="http://www.w3.org/1999/xlink">
    <!-- Generator: Sketch 52.5 (67469) - http://www.bohemiancoding.com/sketch -->
    <title>right-arrow</title>
    <desc>Created with Sketch.</desc>
    <g id="Page-1" stroke="none" stroke-width="1" fill="none" fill-rule="evenodd">
        <g id="Messages" transform="translate(-1233.000000, -754.000000)" fill="#FFFFFF" fill-rule="nonzero">
            <g id="bottom" transform="translate(0.000000, 731.000000)">
                <g id="right-arrow" transform="translate(1233.000000, 23.000000)">
                    <path d="M4.04101557,24 C3.92436879,24 3.80977746,23.9547323 3.72370546,23.8697919 L0.131548828,20.3142461 C0.0472753602,20.2308315 0,20.1176623 0,19.9999156 L0,9.29869151 C0,6.86720781 1.99841173,4.88890931 4.45493192,4.88890931 L13.0081751,4.88890931 L11.3802584,0.60068855 C11.3108869,0.417837769 11.370238,0.21184445 11.5264523,0.0925718107 C11.6826665,-0.0267008288 11.8992596,-0.0310241284 12.0600986,0.0813820519 L21.8103847,6.90688059 C21.9293439,6.99004086 22,7.12533515 22,7.26978476 C22,7.41398008 21.929087,7.54927444 21.8103847,7.632689 L12.0600986,14.4579332 C11.9005442,14.5695765 11.6857497,14.5665248 11.5303062,14.4497952 C11.374092,14.3335743 11.3124285,14.1306328 11.3769182,13.9480363 L13.0102306,9.33327803 L6.45360057,9.33327803 C5.37089201,9.33327803 4.49013156,10.205062 4.49013156,11.2764813 L4.49013156,23.5554614 C4.49013156,23.7350061 4.38067879,23.8972577 4.21290267,23.9659221 C4.1574055,23.9888102 4.09882517,24 4.04101557,24 Z M0.897974929,19.8157932 L3.59215663,22.4825161 L3.59215663,11.2764813 C3.59215663,9.71500138 4.87578543,8.44445514 6.45360057,8.44445514 L13.6435662,8.44445514 C13.7892463,8.44445514 13.9254198,8.51413685 14.0096933,8.63162928 C14.0942237,8.74937608 14.1152921,8.8999292 14.0675028,9.03573214 L12.6895803,12.9284966 L20.7736669,7.26978476 L12.735571,1.64286202 L14.0772663,5.17704558 C14.1289094,5.31361155 14.1098966,5.46645347 14.0261369,5.58648906 C13.9421204,5.70627036 13.8041483,5.77773221 13.6569266,5.77773221 L4.45493192,5.77773221 C2.49351837,5.77773221 0.897974929,7.35726833 0.897974929,9.29869151 L0.897974929,19.8157932 Z" id="Shape"></path>
                </g>
            </g>
        </g>
    </g>
</svg>