<?xml version="1.0" encoding="UTF-8"?>
<svg width="20px" height="20px" viewBox="0 0 20 20" version="1.1" xmlns="http://www.w3.org/2000/svg" xmlns:xlink="http://www.w3.org/1999/xlink">
    <!-- Generator: Sketch 52.5 (67469) - http://www.bohemiancoding.com/sketch -->
    <title>Shape</title>
    <desc>Created with Sketch.</desc>
    <g id="Page-1" stroke="none" stroke-width="1" fill="none" fill-rule="evenodd">
        <g id="Dashboard" transform="translate(-586.000000, -201.000000)" fill="#FFFFFF">
            <g id="noun_Sound_1936430" transform="translate(586.000000, 201.000000)">
                <path d="M15.9195,6.55762 L16.5308,5.71398 C16.9827,6.2869 17.33642,6.9236 17.58244,7.59834 C17.8537,8.34234 17.9956,9.1312 17.9956,9.93064 C17.9956,10.7035 17.8628,11.46722 17.60824,12.19048 C17.36796,12.87312 17.01958,13.51694 16.57252,14.09556 L15.95798,13.24744 C16.25698,12.81722 16.49484,12.35104 16.66684,11.86236 C16.88288,11.24852 16.9956,10.59574 16.9956,9.93064 C16.9956,9.24354 16.87516,8.56966 16.64492,7.93818 C16.46652,7.44894 16.22308,6.98428 15.9195,6.55762 Z M17.33514,4.60394 L17.95204,3.75256 C18.54344,4.55826 19.0135,5.43918 19.35184,6.3671 C19.7696,7.51284 19.98812,8.72894 19.98812,9.96258 C19.98812,11.15544 19.78362,12.33282 19.3916,13.44666 C19.06186,14.3835 18.59976,15.27316 18.01544,16.0869 L17.39514,15.23084 C17.8353,14.57044 18.18906,13.8605 18.4502,13.11854 C18.80372,12.11412 18.98812,11.04768 18.98812,9.96258 C18.98812,8.84128 18.79106,7.74016 18.41432,6.70694 C18.14414,5.96594 17.78226,5.25914 17.33514,4.60394 Z M6.01204,5.91966 L13.01102,0.00018 L13.01102,9.91942 L13.01102,19.99982 L6.01216,13.9198 L6.01204,5.91966 Z M1.30408,5.91974 L4.9937,5.91974 L4.9937,13.90272 L1.30408,13.90272 C0.59344,13.90272 0.0119,13.43852 0.0119,12.8712 L0.0119,6.95128 C0.0119,6.38394 0.59338,5.91974 1.30408,5.91974 Z M15.04438,8.91972 C15.59666,8.91972 16.04438,9.36744 16.04438,9.91972 C16.04438,10.472 15.59666,10.91972 15.04438,10.91972 C14.4921,10.91972 14.04438,10.472 14.04438,9.91972 C14.04438,9.36744 14.4921,8.91972 15.04438,8.91972 Z" id="Shape"></path>
            </g>
        </g>
    </g>
</svg>