<?xml version="1.0" encoding="UTF-8"?>
<svg width="56px" height="90px" viewBox="0 0 56 90" version="1.1" xmlns="http://www.w3.org/2000/svg" xmlns:xlink="http://www.w3.org/1999/xlink">
    <!-- Generator: Sketch 52.5 (67469) - http://www.bohemiancoding.com/sketch -->
    <title>noun_Sound_2040865</title>
    <desc>Created with Sketch.</desc>
    <g id="Page-1" stroke="none" stroke-width="1" fill="none" fill-rule="evenodd">
        <g id="noun_Sound_2040865" fill="#FFFFFF">
            <path d="M3.57458,69.08826 L17.31274,69.08826 L17.31274,20.91174 L3.57458,20.91174 C2.62653908,20.9117347 1.71732607,21.2883408 1.04696085,21.9587079 C0.376595624,22.629075 -7.95658224e-06,23.5382891 0,24.48633 L0,65.51367 C-7.95658224e-06,66.4617109 0.376595624,67.370925 1.04696085,68.0412921 C1.71732607,68.7116592 2.62653908,69.0882653 3.57458,69.08826 Z" id="Path"></path>
            <path d="M50.24658,89.39886 C51.2336184,90.0982179 52.5283567,90.1885091 53.6029114,89.6329206 C54.6774661,89.077332 55.3523063,87.9686885 55.35229,86.759 L55.35229,3.241 C55.3522951,2.03131685 54.6774506,0.922683603 53.6028981,0.367102532 C52.5283456,-0.188478538 51.233614,-0.098184789 50.24658,0.60117 L21.58081,20.91174 L21.58081,69.08826 L50.24658,89.39886 Z" id="Path"></path>
        </g>
    </g>
</svg>